<?xml version="1.0" encoding="UTF-8" standalone="no"?>
<svg
   width="1024"
   height="768"
   viewBox="0 0 1024 768"
   version="1.1"
   id="svg1"
   sodipodi:docname="ten7-heart.svg"
   inkscape:export-filename="../img/ten7-heart.png"
   inkscape:export-xdpi="96"
   inkscape:export-ydpi="96"
   inkscape:version="1.3 (0e150ed6c4, 2023-07-21)"
   xmlns:inkscape="http://www.inkscape.org/namespaces/inkscape"
   xmlns:sodipodi="http://sodipodi.sourceforge.net/DTD/sodipodi-0.dtd"
   xmlns="http://www.w3.org/2000/svg"
   xmlns:svg="http://www.w3.org/2000/svg">
  <defs
     id="defs1" />
  <sodipodi:namedview
     id="namedview1"
     pagecolor="#ffffff"
     bordercolor="#000000"
     borderopacity="0.25"
     inkscape:showpageshadow="2"
     inkscape:pageopacity="0.0"
     inkscape:pagecheckerboard="0"
     inkscape:deskcolor="#d1d1d1"
     inkscape:zoom="0.39969017"
     inkscape:cx="-97.575581"
     inkscape:cy="258.95058"
     inkscape:window-width="1920"
     inkscape:window-height="1011"
     inkscape:window-x="0"
     inkscape:window-y="0"
     inkscape:window-maximized="1"
     inkscape:current-layer="svg1" />
  <path
     fill="#592ad5"
     d="m 286.05017,224.38279 h -69.09086 v 36.30084 h -34.54539 v 36.30074 h -34.54548 v 108.90214 h 34.54548 v 36.30094 h 34.54539 v 36.30094 h 34.54567 v 36.30094 h 34.54519 v 36.30095 h 34.54518 v 36.30094 h 34.54618 v -36.30094 h 34.54518 v -36.30095 h 34.54518 v -36.30094 h 34.54519 v -36.30094 h 34.54618 v -36.30094 h 34.54518 V 296.98437 h -34.54518 v -36.30074 h -34.54618 v -36.30084 h -69.09037 v 36.30084 h -34.54518 v 36.30074 h -34.54618 v -36.30074 h -34.54518 z m 0,36.30084 v 36.30074 h 34.54518 v 36.30125 h 34.54618 v -36.30125 h 34.54518 v -36.30074 h 69.09037 v 36.30074 h 34.54618 v 108.90214 h -34.54618 v 36.30094 h -34.54519 v 36.30094 h -34.54518 v 36.30094 h -34.54518 v 36.30095 H 320.59535 V 514.78933 H 286.05017 V 478.48839 H 251.50498 V 442.18745 H 216.95931 V 405.88651 H 182.41392 V 296.98437 h 34.54539 v -36.30074 z"
     id="path1" />
</svg>
