<?xml version="1.0" encoding="UTF-8" standalone="no"?>
<svg
   width="120"
   height="36"
   viewBox="0 0 120 36"
   fill="none"
   version="1.1"
   id="svg2"
   sodipodi:docname="TEN7-logo.svg"
   inkscape:version="1.3 (0e150ed6c4, 2023-07-21)"
   xmlns:inkscape="http://www.inkscape.org/namespaces/inkscape"
   xmlns:sodipodi="http://sodipodi.sourceforge.net/DTD/sodipodi-0.dtd"
   xmlns="http://www.w3.org/2000/svg"
   xmlns:svg="http://www.w3.org/2000/svg"
   xmlns:rdf="http://www.w3.org/1999/02/22-rdf-syntax-ns#"
   xmlns:cc="http://creativecommons.org/ns#"
   xmlns:dc="http://purl.org/dc/elements/1.1/">
  <defs
     id="defs2" />
  <sodipodi:namedview
     id="namedview2"
     pagecolor="#7f7f7f"
     bordercolor="#000000"
     borderopacity="0.25"
     inkscape:showpageshadow="2"
     inkscape:pageopacity="0.0"
     inkscape:pagecheckerboard="0"
     inkscape:deskcolor="#d1d1d1"
     inkscape:zoom="6.025"
     inkscape:cx="60"
     inkscape:cy="18.008299"
     inkscape:window-width="1551"
     inkscape:window-height="1295"
     inkscape:window-x="26"
     inkscape:window-y="23"
     inkscape:window-maximized="0"
     inkscape:current-layer="svg2" />
  <title
     id="title1">TEN7 Logo</title>
  <path
     d="M84.1375 0H0V36H107.913L119.163 15.6625V0H84.1375ZM27.7 12.4125H20.575V28.95H13.05V12.4125H6.35V6.3125H27.6375L27.7 12.4125ZM50.625 12.4125H38.575V14.775H48.525V20.4875H38.575V22.85H50.625V28.9625H31.575V6.3125H50.625V12.4125ZM76.925 28.95H70.0375L61.4375 16.55V28.95H54.4125V6.3125H63.2L69.7375 15.675V6.3125H76.775L76.925 28.95ZM117.4 15.1875L106.863 34.2H84.1375V1.75H117.4V15.1875Z"
     fill="white"
     id="path1" />
  <path
     d="M94.7625 28.9625H103.15L111.375 13.65V6.3125H90.3875V12.4375H103.662L94.7625 28.9625Z"
     fill="white"
     id="path2" />
  <metadata
     id="metadata2">
    <rdf:RDF>
      <cc:Work
         rdf:about="">
        <dc:title>TEN7 Logo</dc:title>
      </cc:Work>
    </rdf:RDF>
  </metadata>
</svg>
