<?xml version="1.0" encoding="UTF-8" standalone="no"?>
<svg
   version="1.1"
   id="Layer_1"
   x="0px"
   y="0px"
   viewBox="0 0 1045.3 380"
   style="enable-background:new 0 0 1045.3 380;"
   xml:space="preserve"
   sodipodi:docname="TEN7-logo.svg"
   inkscape:version="1.3 (0e150ed6c4, 2023-07-21)"
   xmlns:inkscape="http://www.inkscape.org/namespaces/inkscape"
   xmlns:sodipodi="http://sodipodi.sourceforge.net/DTD/sodipodi-0.dtd"
   xmlns="http://www.w3.org/2000/svg"
   xmlns:svg="http://www.w3.org/2000/svg"><defs
   id="defs2" /><sodipodi:namedview
   id="namedview2"
   pagecolor="#ffffff"
   bordercolor="#000000"
   borderopacity="0.25"
   inkscape:showpageshadow="2"
   inkscape:pageopacity="0.0"
   inkscape:pagecheckerboard="0"
   inkscape:deskcolor="#d1d1d1"
   inkscape:zoom="1.0599827"
   inkscape:cx="522.65002"
   inkscape:cy="190.09744"
   inkscape:window-width="1920"
   inkscape:window-height="1011"
   inkscape:window-x="0"
   inkscape:window-y="0"
   inkscape:window-maximized="1"
   inkscape:current-layer="Layer_1" />&#10;<style
   type="text/css"
   id="style1">&#10;	.st0{fill:#FFFFFF;}&#10;	.st1{fill:#270066;}&#10;</style>&#10;&#10;&#10;<g
   id="g2"><polygon
     class="st0"
     points="46.1,45.9 46.1,333.9 909.4,333.9 999.4,171.2 999.4,45.9 "
     id="polygon1" /><path
     class="st1"
     d="M719.2,45.9H46.1v288h863.3l90-162.7V45.9H719.2z M267.7,145.2h-57v132.3h-60.2V145.2H96.9V96.4h170.3  L267.7,145.2z M451.1,145.2h-96.4v18.9h79.6v45.7h-79.6v18.9h96.4v48.9H298.7V96.4h152.4V145.2z M661.5,277.5h-55.1l-68.8-99.2v99.2  h-56.2V96.4h70.3l52.3,74.9V96.4h56.3L661.5,277.5z M985.3,167.4L901,319.5H719.2V59.9h266.1L985.3,167.4z"
     id="path1" /><polygon
     class="st1"
     points="804.2,277.6 871.3,277.6 937.1,155.1 937.1,96.4 769.2,96.4 769.2,145.4 875.4,145.4 "
     id="polygon2" /></g>&#10;</svg>
